<svg width="1440" height="1167" viewBox="0 0 1440 1167" fill="none" xmlns="http://www.w3.org/2000/svg">
<path d="M1478.97 1123.8L1516.63 1102.14L1571.37 1070.66L1634.8 1107.1V1104.32L1601.11 1084.98L1573.77 1069.29L1598.16 1055.28L1628.61 1037.8L1634.8 1034.25V1031.48L1571.37 1067.78L1461.01 1004.43L1471.72 998.256L1515.84 972.945L1570.6 941.463L1634.73 978.262V975.487L1573.08 940.192L1627.83 908.71L1634.71 904.769V901.994L1625.41 907.31L1570.65 938.792L1560.21 932.827L1460.27 875.438L1504.34 850.128L1515.12 843.956L1562.64 816.882L1570.15 812.577L1635 849.791V847.016L1578.11 814.288L1572.45 811.047L1581.78 805.705L1627.29 779.565L1634.87 775.208V772.433L1624.86 778.191L1570.1 809.673L1459.75 746.293L1514.51 714.81L1569.26 683.328L1634.87 720.931V718.338L1571.74 682.032L1573.52 681.046L1586.56 673.499L1626.52 650.549L1629.76 648.708L1634.87 645.726V642.951L1569.34 680.579L1458.97 617.199L1513.73 585.718L1535.18 573.399L1568.54 554.235L1634.8 592.278V589.503L1570.97 552.86L1625.72 521.379L1634.71 516.192V513.469L1623.3 520.03L1568.54 551.512L1558.11 545.522L1458.35 488.08L1476.23 477.707L1513.11 456.598L1560.41 429.446L1567.94 425.115L1634.87 463.548V460.773L1576 427.06L1570.47 423.741L1599.35 407.144L1625.16 392.337L1634.87 386.761V383.805L1622.75 390.754L1609.19 398.534L1567.85 422.34L1457.56 358.961L1474.74 349.107L1512.4 327.505L1567.15 295.996L1634.8 334.896V332.121L1596.88 310.363L1569.56 294.804L1593.93 280.8L1624.39 263.321L1634.82 257.356V254.374L1567.18 293.273L1456.86 229.867L1467.58 223.696L1511.7 198.386L1566.45 166.904L1634.87 206.14V203.365L1568.93 165.503L1623.68 134.021L1634.8 127.641V124.866L1621.26 132.646L1566.51 164.129L1556.07 158.164L1456.15 100.748L1500.22 75.4382L1510.99 69.266L1558.28 42.089L1565.79 37.7835L1634.87 77.435V74.6602L1573.88 39.6502L1568.22 36.3058L1577.56 31.12L1623.05 4.90039L1631.61 0H1626.77L1620.63 3.52626L1565.88 35.0087L1504.86 0H1500.07L1563.46 36.3058L1553.62 41.959L1547.81 45.2781L1508.7 67.7883L1453.94 99.2708L1355.56 42.9706L1343.38 35.9951L1398.14 4.51265L1405.96 0H1401.14L1395.76 3.112L1366.93 19.6824L1349.28 29.8229L1341.01 34.5945L1338.4 33.1938H1338.25L1280.7 0H1275.83L1338.4 35.9951L1305.03 55.1584L1283.64 67.4246L1228.89 98.9588L1224.07 96.184L1214.11 90.4791L1118.52 35.5796L1173.28 4.09713L1180.49 0H1175.64L1170.93 2.59291L1116.17 34.0754L1080.27 13.6655L1078.15 12.4733L1076.04 11.2545L1056.54 0H1051.71L1113.69 35.5796L1076.14 57.0517L1058.86 66.9838L1041.31 77.0725L1021.75 88.2752L1004.02 98.5433L998.649 95.4591L989.236 90.0649L893.673 35.1653L948.429 3.68287L954.923 0H950.072L946.083 2.30748L891.248 33.7129L855.527 13.1995L853.415 12.059L851.301 10.8402L832.397 0H827.575L888.823 35.1653L851.301 56.741L833.988 66.6466L779.232 98.129L668.805 34.7763L723.563 3.29387L729.351 0H724.527L666.381 33.3757L608.312 0H603.463L664.008 34.7763L554.495 97.74L444.043 34.3608L498.8 2.87961L503.805 0H498.956L496.348 1.50295L441.435 32.9867L384.071 0H379.221L415.465 20.7458L439.088 34.309L430.64 39.1589L384.28 65.8433L329.523 97.3258L288.925 73.9858L224.755 37.2139L219.097 33.9718L228.405 28.5258L273.905 2.59291L278.235 0H273.411L271.507 1.08869L216.751 32.5724L159.829 0H155.005L214.143 33.9718L204.313 39.5997L198.524 42.9441L159.412 65.4543L104.656 96.9368L6.407 40.5583L-5.77083 33.5576L49.0644 2.07509L52.6887 0H47.8394L46.6398 0.699695L17.8008 17.2448L0.148449 27.3853L-8.19548 32.1822L-10.6468 30.7563H-10.8031L-64.2036 0H-69.0529L-10.5947 33.5576L-43.9691 52.7209L-65.4287 65.0388L-120.186 96.5213L-124.984 93.773L-135.023 88.1716L-200 50.7493V53.5254L-143.392 86.0195L-123.68 97.3258L-122.714 97.8967L-123.705 98.4663L-126.313 99.8934L-177.497 129.404L-190.692 136.977L-200 142.318V145.223L-194.576 142.111L-177.42 132.257L-166.103 125.644L-120.264 99.296L-97.24 112.522L-9.89069 162.677L-64.6471 194.159L-119.56 225.615L-200 179.455V182.23L-121.985 227.041L-140.237 237.57L-176.741 258.523L-200 271.828V274.602L-174.394 259.899L-173.535 259.405L-152.936 247.58L-121.647 229.583L-119.639 228.416L-9.2642 291.795L-64.0207 323.278L-118.778 354.76L-145.348 339.486L-200 308.159V310.934L-174.421 325.612L-121.568 355.979L-121.281 356.135L-176.038 387.617L-200 401.361V404.136L-173.691 388.991L-153.066 377.192L-118.856 357.535L-8.48267 420.914L-18.9119 426.828L-63.4208 452.397L-118.179 483.879L-132.936 475.4L-200 436.863V439.638L-142.871 472.443L-121.568 484.683L-120.577 485.254L-121.568 485.824L-175.385 516.736L-200 530.87V533.645L-172.987 518.085L-118.229 486.602L-105.193 494.122L-7.90828 549.956L-62.6647 581.439L-117.422 612.921L-200 565.568V568.368L-119.873 614.372L-121.568 615.359L-174.681 645.855L-200 660.378V663.178L-172.283 647.256L-170.457 646.192L-161.592 641.006L-150.824 634.808L-119.533 616.811L-117.525 615.67L-64.412 646.192L-62.7435 647.152L-8.11669 678.531L-7.04797 679.127L-61.8044 710.558L-116.562 742.04L-200 694.298V697.073L-119.456 743.311L-119.168 743.493L-173.926 774.975L-200 789.911V792.686L-171.579 776.375L-128.973 751.894L-116.744 744.867L-6.36938 808.246L-39.745 827.411L-61.2046 839.728L-116.039 871.341L-120.837 868.592L-130.824 862.86L-200 823.001V825.776L-139.168 860.708L-119.456 872.016L-118.49 872.585L-119.481 873.156L-122.089 874.582L-173.273 904.094L-186.468 911.666L-200 919.446V922.22L-190.352 916.697L-173.196 906.842L-161.879 900.359L-116.04 873.934L-93.0159 887.16L-5.66537 937.313L-60.4231 968.796L-115.18 1000.28L-200 951.733V954.508L-117.76 1001.76L-136.013 1012.29L-172.517 1033.24L-200 1048.95V1051.73L-170.171 1034.72L-169.309 1034.22L-148.71 1022.4L-117.421 1004.4L-115.413 1003.23L-4.96135 1066.49L-59.7191 1097.97L-114.476 1129.45L-141.045 1114.18L-200 1080.41V1083.21L-170.196 1100.3L-117.344 1130.67L-117.056 1130.82L-171.814 1162.31L-179.975 1166.97H-175.151L-169.467 1163.71L-148.842 1151.88L-114.632 1132.22L-53.9828 1166.97H-49.2885L-112.207 1130.82L-101.777 1124.81L-57.4507 1099.34L-2.69302 1067.86L11.2309 1075.85L107.707 1131.24L88.8549 1142.05L45.571 1166.97H50.3161L55.5314 1164.12L82.9357 1148.38L110.288 1132.64L170.051 1166.97H174.875L112.635 1131.24L129.817 1121.38L167.469 1099.76L222.227 1068.27L332.573 1131.65L293.019 1154.37L277.765 1163.11L271.143 1166.97H275.965L280.241 1164.51L334.999 1133.03L345.428 1139.02L394.188 1166.97H399.037L345.507 1136.24L337.501 1131.65L345.507 1127.06L392.441 1100.15L409.52 1090.34L447.276 1068.66L542.369 1123.28L557.624 1132.04L524.248 1151.21L502.789 1163.53L496.792 1166.97H501.641L505.213 1164.92L559.971 1133.44L599.239 1155.98L618.377 1166.97H623.201L578.301 1141.2L569.696 1136.24L562.396 1132.04L617.152 1100.56L671.908 1069.08L782.283 1132.46L758.528 1146.23L722.259 1166.97H727.083L729.977 1165.31L746.743 1155.69L784.785 1133.83L842.488 1166.97H847.339L832.059 1158.18L787.211 1132.46L841.967 1100.97L857.612 1092.03L896.855 1069.49L954.063 1102.32L998.624 1127.92L1007.2 1132.85L952.497 1164.38L947.908 1166.97H952.732L954.896 1165.73L975.443 1154.01L998.649 1140.65L1009.65 1134.35L1066.65 1166.97H1071.48L1056.8 1158.6L1041.15 1149.65L1011.92 1132.87L1066.68 1101.39L1082.33 1092.44L1121.43 1069.91L1178.64 1102.76L1231.49 1133.11L1231.81 1133.29L1177.05 1164.77L1173.16 1167H1178.02L1179.48 1166.14L1200.08 1154.32L1234.31 1134.66L1290.81 1166.97H1295.64L1236.92 1133.26L1247.35 1127.22L1291.67 1101.78L1346.43 1070.3L1360.36 1078.28L1456.84 1133.65L1438 1144.49L1398.89 1166.97H1403.72L1404.47 1166.53L1431.9 1150.79L1459.32 1135.05L1514.95 1166.97H1519.8L1461.78 1133.65L1478.97 1123.8ZM1568.32 940.192L1534.95 959.356L1513.49 971.674L1461.35 1001.68L1458.73 1003.16L1385.08 960.912L1348.31 939.777L1403.07 908.295L1457.83 876.812L1568.32 940.192ZM1008.95 1002.43L898.601 939.051L933.932 918.771L951.089 908.917L962.38 902.408L998.649 881.662L1008.24 876.164L1086.23 920.95L1118.62 939.544L1103.18 948.387L1084.59 959.071L1082.48 960.289L1078.57 962.52L1063.78 971.026L1041.31 983.993L1008.95 1002.43ZM55.1133 646.192L107.42 616.162L180.897 658.355L216.02 678.531L217.768 679.543L135.397 726.843L108.124 742.403L13.8118 688.281L-2.11989 679.127L52.6365 647.645L55.2442 646.192H55.1133ZM1002.3 229.038L984.048 239.592L947.543 260.547L906.137 284.301L892.708 292.081L855.579 270.738L853.467 269.545L826.713 254.141L782.387 228.623L837.144 197.141L853.415 187.805L891.952 165.685L905.668 173.464L998.649 226.964L1002.3 229.038ZM1008.24 873.234L1003.45 870.485L993.46 864.753L897.897 809.854L952.653 778.371L995.26 753.917L998.597 751.998L1007.49 746.812L1117.86 810.191L1080.27 831.82L1062.98 841.752L1041.2 854.252L1008.24 873.234ZM1003.03 358.158L948.273 389.639L893.516 421.122L857.795 400.609L855.683 399.391L853.571 398.197L827.991 383.493L783.012 357.872L837.769 326.39L853.415 317.443L892.656 294.907L949.891 327.634L998.676 355.667L1003.03 358.158ZM1117.53 295.193L1174.73 328.05L1227.59 358.39L1227.89 358.572L1173.14 390.055L1118.38 421.537L1082.66 401.024L1080.55 399.805L1078.44 398.586L1052.68 383.805L1041.31 377.269L1007.85 358.053L1062.61 326.572L1078.26 317.625L1117.53 295.193ZM1007.54 744.114L897.167 680.761L897.532 680.553L916.801 669.48L952.003 649.279L953.827 648.215L962.692 643.028L973.461 636.831L998.649 622.386L1006.84 617.693L1116.76 680.968L1117.13 681.15L1062.38 712.632L1041.31 724.742L1007.54 744.114ZM672.325 680.346L697.253 666.031L727.16 648.863L728.256 648.319L761.371 629.31L781.944 617.484L835.683 648.319L842.332 652.131L892.004 680.657L892.344 680.865L837.587 712.347L782.829 743.829L672.848 680.657L672.325 680.346ZM667.111 680.553L612.641 711.828L592.095 723.524L586.515 726.739L575.903 732.834L557.832 743.207L545.629 736.205L529.151 726.739L448.528 680.449L447.459 679.827L502.215 648.344L502.632 648.112L557.051 616.863L667.397 680.242L667.059 680.449L667.111 680.553ZM441.54 680.553L387.773 711.413L360.917 726.843L342.952 737.217L332.991 742.947L311.375 730.552L305.013 726.896L222.617 679.438L224.364 678.427L237.401 670.906L277.348 647.955L280.607 646.089L332.183 616.474L341.204 621.66L387.383 648.319L442.635 680.035L441.565 680.657L441.54 680.553ZM635.092 442.672L646.068 436.371L668.467 423.404L758.816 475.27H758.972L778.84 486.654L765.204 494.434L724.005 518.11L697.671 533.203L669.197 549.774L558.771 486.472L578.067 475.373L613.58 454.99L621.037 450.711L635.039 442.672H635.092ZM1003.68 487.277L1002.69 487.846L948.899 518.656L894.143 550.137L855.604 528.017L783.768 486.758L803.768 475.27L838.577 455.302L876.881 433.336L893.308 423.923L981.415 474.57L998.649 484.476L1003.68 487.277ZM1008.53 487.277L1021.88 479.497L1028.53 475.685L1063.37 455.691L1101.77 433.621L1118.18 424.208L1206.23 474.777L1227.54 487.017L1228.56 487.614L1227.54 488.184L1173.75 519.174L1118.99 550.656L1080.27 528.51L1041.15 506.078L1008.53 487.277ZM1069 524.801L1116.49 552.03L1088.33 568.213L1080.27 572.777L1061.67 583.487L1041.31 595.209L1006.84 614.995L896.463 551.641L951.22 520.159L998.572 492.955L1006.06 488.677L1069 524.801ZM844.157 524.386L891.613 551.641L863.505 567.927L855.527 572.517L836.804 583.254L788.228 611.053L781.969 614.606L773.131 609.42L671.621 551.123L726.379 519.641L737.383 513.469L757.929 501.67L781.265 488.262L844.157 524.386ZM666.851 551.227L612.093 582.709L557.337 614.192L523.127 594.56L446.651 550.811L496.452 522.286L501.485 519.407L556.241 487.899L666.851 551.227ZM499.243 517.955L482.06 527.835L444.433 549.437L334.06 486.058L341.361 481.883L388.895 454.576L443.652 423.093L482.529 445.447L554 486.472L499.243 517.955ZM341.361 493.034L442.009 550.811L387.252 582.32L332.496 613.803L289.081 588.855L222.148 550.422L276.904 518.94L308.872 500.503L331.557 487.536L341.361 493.034ZM392.207 648.319L341.283 619.067L334.685 615.281L341.283 611.494L384.045 586.937L398.491 578.637L444.356 552.316L554.704 615.696L499.947 647.177L445.191 678.66L392.207 648.319ZM616.448 648.319L559.553 615.591L614.309 584.11L665.416 554.78L669.144 552.628L779.519 615.98L755.139 629.984L724.684 647.463L669.927 678.945L616.448 648.319ZM876.881 669.065L857.533 657.966L855.421 656.747L846.583 651.69L810.729 631.099L784.291 615.903L826.505 591.682L839.125 584.421L841.732 582.995L855.527 575.085L894.064 552.938L923.555 569.872L998.649 612.998L1004.41 616.292L1002.72 617.277L949.603 647.775L896.099 678.479L894.768 679.257L876.881 669.065ZM1095.91 666.083L1082.48 658.303L1080.37 657.111L1073.28 653.012L1041.31 634.679L1009.26 616.292L1051.58 592.149L1064.23 584.913L1066.7 583.487L1080.5 575.552L1119.04 553.431L1148.52 570.365L1229.36 616.811L1227.64 617.77L1174.45 648.319L1120.97 679.023L1119.61 679.802L1095.91 666.083ZM1122.37 680.89L1141.48 669.921L1176.87 649.59L1178.69 648.553L1187.56 643.366L1198.32 637.193L1229.62 619.197L1231.66 618.03L1284.63 648.474L1286.3 649.434L1341.06 680.813L1342.1 681.409L1287.34 712.892L1232.6 744.374L1121.99 681.15L1122.37 680.89ZM1121.33 551.953L1176.08 520.471L1230.84 488.988L1243.88 496.508L1341.35 552.367L1286.59 583.85L1231.83 615.332L1121.33 551.953ZM1216.22 477.734L1120.63 422.859L1175.39 391.377L1195.99 379.526L1230.22 359.894L1340.56 423.248L1330.14 429.162L1285.6 454.731L1230.84 486.213L1216.22 477.734ZM1115.8 422.859L1080.27 443.268L1078.15 444.488L1060.86 454.42L1041.2 465.7L1006.03 485.903L991.244 477.396L895.681 422.522L950.437 391.04L971.063 379.214L998.493 363.447L1005.27 359.557L1115.8 422.859ZM890.935 422.445L855.527 442.775L853.415 443.994L836.1 453.926L808.931 469.486L781.265 485.357L696.967 437.019L670.892 422.108L725.648 390.625L742.415 381.004L780.457 359.143L890.935 422.445ZM754.331 371.461L668.519 420.733L574.103 366.507L565.472 361.554L558.171 357.353L612.928 325.871L667.684 294.388L778.163 357.872L754.331 371.461ZM594.988 381.211L666.068 422.03L577.023 473.246L556.399 485.072L446.024 421.719L500.781 390.236L555.537 358.754L594.988 381.211ZM519.92 376.44L498.46 388.758L443.704 420.24L411.424 401.958L341.283 361.684L333.277 357.094L341.283 352.503L388.217 325.612L405.296 315.783L443.052 294.103L538.145 348.718L553.4 357.483L519.92 376.44ZM341.283 364.252L430.171 415.287L441.227 421.641L417.76 435.1L386.469 453.123L332.183 484.242L331.635 484.554L226.945 424.442L221.288 421.173L250.204 404.551L276.017 389.717L330.775 358.235L341.283 364.252ZM288.847 379.603L273.619 388.369L260.035 396.149L218.784 419.851L108.411 356.472L125.593 346.617L163.245 324.989L218.001 293.507L328.376 356.886L288.847 379.603ZM288.847 462.848L329.159 485.98L288.847 509.111L274.323 517.462L219.567 548.945L209.136 542.98L109.219 485.591L127.105 475.218L164.028 454.005L211.353 426.828L218.863 422.522L288.847 462.848ZM288.847 591.578L329.863 615.099L313.8 624.331L288.847 638.646L220.192 678.064L109.819 614.71L164.575 583.227L186.035 570.884L219.411 551.745L288.847 591.578ZM295.887 724.328L330.567 744.219L293.097 765.743L275.731 775.7L220.975 807.183L110.548 743.882L165.305 712.399L220.061 680.917L295.887 724.328ZM232.629 803.216L278.129 777.101L332.887 745.618L345.428 752.802L419.637 795.409L443.26 808.972L434.812 813.822L388.504 840.533L333.747 872.016L293.175 848.675L229.057 811.877L223.4 808.635L232.629 803.216ZM345.507 750.027L335.389 744.271L345.507 738.461L390.224 712.788L407.304 702.985L445.06 681.306L553.165 743.388L555.407 744.685L522.032 763.823L500.572 776.167L445.816 807.65L345.507 750.027ZM502.997 777.49L557.753 746.007L668.284 809.465L558.771 872.43L448.163 809.102L502.997 777.49ZM576.163 753.762L567.559 748.834L560.257 744.633L615.013 713.151L669.771 681.668L780.405 745.1L756.547 758.792L670.736 808.064L576.163 753.762ZM727.864 777.982L782.621 746.5L892.995 809.854L855.473 831.404L838.16 841.311L783.404 872.793L673.056 809.44L727.864 777.982ZM859.724 787.966L857.639 786.747L855.527 785.529L785.124 745.1L839.881 713.618L855.527 704.671L857.639 703.452L894.768 682.032L998.649 741.676L1005.12 745.385L950.36 776.867L895.603 808.35L859.724 787.966ZM1084.59 788.355L1082.48 787.163L1080.37 785.944L1041.26 763.512L1009.97 745.515L1064.72 714.032L1080.37 705.085L1082.48 703.866L1119.61 682.55L1229.67 745.748L1229.98 745.904L1175.22 777.386L1120.48 808.869L1084.59 788.355ZM1177.57 778.787L1220.18 754.332L1232.41 747.304L1342.76 810.684L1309.38 829.848L1287.93 842.193L1233.17 873.675L1228.34 870.9L1218.38 865.194L1122.79 810.295L1177.57 778.787ZM1342.73 807.884H1342.57L1234.81 746.007L1289.57 714.525L1344.32 683.042L1358.25 691.056L1419.98 726.507L1454.66 746.423L1399.91 777.905L1371.05 794.476L1353.4 804.616L1345.07 809.388L1342.73 807.884ZM1323.2 667.846L1234.11 616.811L1288.85 585.329L1343.61 553.846L1454.14 617.199L1399.39 648.682L1383.54 657.784L1344.55 680.164L1323.2 667.846ZM1233.4 487.587L1254.26 475.528L1261.48 471.38L1288.1 456.105L1335.33 428.98L1342.94 424.623L1453.29 487.977L1398.53 519.459L1343.78 550.941L1233.4 487.587ZM1341.92 421.173L1340.46 420.344L1232.7 358.469L1243.13 352.426L1287.46 326.986L1342.21 295.504L1356.13 303.491L1452.61 358.858L1433.79 369.698L1342.96 421.848L1341.92 421.173ZM1317.08 278.207L1231.99 229.453L1286.74 197.971L1341.5 166.488L1443.48 225.044L1451.88 229.867L1397.12 261.35L1342.37 292.832L1317.08 278.207ZM1339.94 294.103L1285.18 325.585L1230.42 357.068L1203.85 341.82L1119.92 293.819L1174.67 262.336L1175.54 261.842L1196.14 249.992L1227.42 231.994L1229.46 230.854L1339.94 294.103ZM1208.81 239.981L1172.31 260.936L1130.92 284.715L1117.48 292.495L1080.27 271.101L1078.15 269.883L1051.58 254.556L1041.31 248.67L1007.25 229.064L1062.01 197.582L1078.29 188.22L1116.76 165.969L1130.51 173.749L1227.14 229.246L1208.81 239.981ZM1115.1 293.819L1086.7 310.104L1060.26 325.3L1054.63 328.542L1041.31 336.192L1005.43 356.782L978.859 341.508L895.133 293.403L949.891 261.921L950.751 261.428L971.349 249.603L1002.64 231.605L1003.92 230.854L1004.65 230.438L1115.1 293.819ZM890.232 293.403L861.863 309.689L835.396 324.886L829.764 328.127L780.561 356.368L670.213 293.041L724.971 261.584L779.727 230.076L890.232 293.403ZM722.624 260.131L667.867 291.614L565.916 233.11L557.441 228.208L612.197 196.725L666.955 165.243L750.393 213.219L777.197 228.623L722.624 260.131ZM665.26 292.988L610.503 324.497L555.747 355.979L543.544 348.977L527.064 339.486L445.347 292.599L500.103 261.118L554.86 229.635L665.26 292.988ZM497.756 259.717L443 291.199L332.573 227.845L341.283 222.84L387.408 196.363L389.129 195.351L396.379 191.202L442.244 164.88L552.591 228.208L497.756 259.717ZM341.309 235.599L440.548 292.652L385.792 324.133L358.935 339.538L339.667 350.61L330.957 355.615L302.979 339.538L288.951 331.499L247.909 307.925L220.609 292.366L244.963 278.388L275.419 260.884L330.175 229.401L341.309 235.599ZM288.872 250.174L218.107 290.81L107.68 227.43L118.397 221.284L162.437 195.947L217.193 164.466L327.749 227.845L288.872 250.174ZM159.829 260.131L215.629 292.184L106.116 355.149L86.8204 344.102L11.5689 300.95L-4.44033 291.795L50.3161 260.313L65.0749 251.833L105.151 228.831L159.829 260.131ZM216.333 421.303L161.576 452.786L155.788 456.105L106.741 484.268L5.59879 426.205L-2.74512 421.433L-3.6588 420.914L38.2959 396.771L51.1764 389.38L78.5807 373.64L106.012 357.872L216.333 421.303ZM217.037 550.422L183.688 569.587L162.203 581.905L129.635 600.602L107.393 613.387L33.8367 571.143L-2.95479 550.008L51.8805 518.656L106.637 487.173L217.037 550.422ZM218.445 808.662L208.641 814.288L202.852 817.634L163.74 840.144L108.984 871.626L10.6311 815.248L-1.54677 808.246L53.211 776.764L107.967 745.281L218.445 808.662ZM219.149 937.781L185.904 956.919L164.419 969.236L112.269 999.241L109.663 1000.75L35.9487 958.475L-0.842774 937.365L53.915 905.883L108.671 874.401L219.149 937.781ZM211.144 930.39L111.227 873.001L155.267 847.716L166.035 841.518L213.387 814.288L220.896 809.957L311.609 862.057L312.653 862.653L331.271 873.338L293.097 895.251L276.435 904.82L221.679 936.303L211.144 930.39ZM278.808 906.272L333.564 874.79L345.403 881.584L410.145 918.668L444.043 938.169L389.287 969.652L334.529 1001.13L224.181 937.754L278.808 906.272ZM336.172 873.415L345.585 868.021L391.007 841.932L445.764 810.45L502.659 843.126L556.164 873.934L501.407 905.416L455.099 932.024L446.597 936.899L336.172 873.415ZM475.828 922.688L503.78 906.635L558.536 875.153L668.884 938.532L625.209 963.61L614.075 970.014L559.319 1001.5L549.253 995.817L448.867 938.195L475.828 922.688ZM560.961 873.934L615.717 842.452L637.177 830.134L660.957 816.493L670.553 810.969L760.901 862.835L780.927 874.323L726.171 905.805L671.413 937.288L560.961 873.934ZM728.569 907.231L748.751 895.613L751.932 893.798L783.377 875.645L861.393 920.406L893.752 938.999L878.315 947.868L859.724 958.526L857.639 959.745L853.727 962.002L838.916 970.482L808.748 987.83L784.081 1001.96L754.017 984.718L673.733 938.61L728.569 907.231ZM857.639 915.582L785.803 874.349L805.828 862.86L840.637 842.815L857.639 833.064L895.472 811.333L985.117 862.808L998.649 870.588L1005.82 874.712L1004.83 875.283L1002.22 876.709L950.907 906.194L937.687 913.766L895.968 937.677L857.639 915.582ZM1082.48 915.997L1041.31 892.346L1010.67 874.764L1030.67 863.276L1065.5 843.281L1082.48 833.505L1120.31 811.695L1209.99 863.172L1229.67 874.478L1230.66 875.023L1229.65 875.62L1227.17 877.046L1175.83 906.505L1162.63 914.078L1120.91 937.988L1082.48 915.997ZM1158.78 919.212L1175.96 909.358L1187.24 902.875L1233.12 876.527L1256.13 889.753L1343.46 939.881L1288.7 971.363L1233.94 1002.85L1123.58 939.492L1158.78 919.212ZM1235.51 875.126L1279.65 849.791L1290.34 843.645L1327.42 822.354L1345.19 812.163L1437.64 865.272L1455.53 875.645L1400.77 907.128L1346.01 938.61L1235.51 875.126ZM1567.62 811.176L1557.79 816.831L1551.98 820.15L1512.87 842.659L1458.11 874.141L1359.79 817.66L1347.6 810.684L1402.36 779.201L1457.12 747.719L1567.62 811.176ZM1530.05 660.792L1565.25 680.968L1567.03 681.954L1484.41 729.255L1457.14 744.815L1362.72 690.59L1346.8 681.461L1401.56 649.979L1404.16 648.526L1456.47 618.496L1530.05 660.792ZM1566.21 552.86L1532.84 571.999L1511.38 584.342L1478.81 603.041L1456.54 615.825L1382.97 573.58L1346.23 552.367L1400.99 520.885L1455.73 489.402L1566.21 552.86ZM1565.51 423.741L1510.76 455.223L1504.96 458.543L1455.73 486.706L1354.64 428.643L1346.31 423.845L1345.39 423.327L1387.45 399.364L1400.3 391.973L1427.74 376.025L1455.13 360.465L1565.51 423.741ZM1508.98 262.569L1564.8 294.622L1455.13 357.587L1435.87 346.513L1360.72 303.414L1344.79 294.26L1399.55 262.777L1414.3 254.323L1454.38 231.295L1508.98 262.569ZM1564.1 165.503L1530.73 184.668L1509.27 197.089L1457.12 227.093L1454.51 228.572L1380.84 186.224L1344.08 165.088L1398.84 133.632L1453.6 102.124L1564.1 165.503ZM1275.43 74.9974L1286.12 68.8517L1323.2 47.5603L1341.01 37.368L1433.47 90.4791L1451.36 100.852L1396.5 132.257L1341.74 163.74L1231.29 100.334L1275.43 74.9974ZM1251.96 114.96L1339.29 165.088L1284.53 196.597L1229.78 228.053L1119.22 164.699L1154.55 144.394L1171.74 134.54L1183.02 128.056L1228.89 101.735L1251.96 114.96ZM1026.44 88.4571L1061.28 68.4627L1078.26 58.7125L1116.09 36.9803L1205.76 88.4571L1225.44 99.7633L1226.43 100.308L1225.42 100.904L1222.94 102.331L1171.52 131.817L1158.48 139.415L1116.76 163.376L1078.24 141.256L1041.28 120.017L1006.42 100.024L1026.44 88.4571ZM1082.01 146.105L1114.39 164.699L1098.96 173.569L1080.27 184.122L1078.15 185.341L1074.24 187.571L1059.46 196.077L1041.2 206.45L1004.7 227.456L894.377 164.284L929.708 144.005L946.865 134.151L958.156 127.667L1004.02 101.319L1082.01 146.105ZM801.604 88.1716L836.413 68.1773L853.415 58.297L891.248 36.5647L980.892 88.1704L998.649 98.3627L1001.54 100.049L1000.55 100.62L997.945 102.046L946.787 131.428L933.568 138.999L891.848 162.91L853.415 140.762L781.579 99.5297L801.604 88.1716ZM857.168 145.846L889.527 164.413L874.091 173.283L855.527 183.941L853.415 185.16L849.503 187.416L834.692 195.896L804.524 213.245L779.857 227.378L749.793 210.055L669.509 163.895L724.267 132.413L744.448 120.795L747.629 118.98L779.075 100.827L857.168 145.846ZM611.545 67.7883L633.005 55.4439L656.785 41.8036L666.381 36.2806L756.729 88.1439L776.755 99.632L721.999 131.114L667.241 162.597L556.737 99.1142L611.545 67.7883ZM664.66 163.895L620.985 188.972L609.851 195.378L555.095 226.86L545.108 221.129L444.643 163.376L471.525 147.946L499.477 131.894L554.235 100.411L664.66 163.895ZM341.283 93.3575L386.679 67.244L441.435 35.7615L498.331 68.4362L551.783 99.1407L497.027 130.598L450.744 157.204L442.244 162.079L331.921 98.7264L341.283 93.3575ZM341.283 106.922L405.869 144.005L439.767 163.506L385.009 194.989L330.253 226.471L219.801 163.091L274.557 131.608L329.315 100.126L341.283 106.922ZM150.939 73.0512L161.707 66.8537L209.163 39.6755L216.672 35.3447L297.791 82.0247L308.455 88.1704L327.072 98.8553L288.872 120.768L272.237 130.336L217.48 161.819L207.051 155.829L107.028 98.3096L150.939 73.0512ZM214.821 163.116L181.472 182.254L160.143 194.495L107.993 224.473L105.385 225.976L31.7247 183.81L-5.06682 162.675L49.6909 131.193L104.447 99.7103L214.821 163.116ZM-117.839 97.9219L-73.6951 72.6117L-63.004 66.4912L-25.952 45.201L-8.19548 35.0087L84.2128 88.1716L102.1 98.5446L47.3438 130.027L-7.41268 161.51L-117.839 97.9219ZM-32.0797 275.874L-117.135 227.042L-62.3788 195.56L-7.62109 164.078L94.6433 222.634L103.013 227.431L48.2562 258.912L-6.78745 290.447L-32.0797 275.874ZM-8.61229 418.011L-116.431 356.136L-106.001 350.119L-61.6748 324.653L-6.91708 293.171L7.00681 301.185L103.483 356.551L84.6309 367.365L-6.08344 419.515L-7.20427 418.867L-8.61229 418.011ZM-115.726 485.255L-94.8675 473.222L-87.619 469.073L-60.892 453.824L-13.6967 426.725L-6.08344 422.342L104.291 485.722L49.5333 517.205L-5.22313 548.687L-115.726 485.255ZM-25.952 665.54L-115.023 614.372L-60.2668 582.89L-5.50906 551.409L105.073 614.788L50.3161 646.27L34.4632 655.373L-4.64874 677.753L-25.952 665.54ZM-6.42274 805.447H-6.57905L-114.319 743.494L-59.5628 712.011L-4.80505 680.529L9.11884 688.516L70.8633 723.966L105.568 743.883L50.8638 775.391L22.0248 791.962L4.37249 802.102L-3.97141 806.898L-6.42274 805.447ZM-113.615 872.613L-69.471 847.251L-58.78 841.13L-21.728 819.839L-3.97141 809.648L88.5156 862.733L106.403 873.105L51.6466 904.588L-3.11109 936.07L-113.615 872.613ZM-27.9077 1050.56L-112.91 1001.71L-58.1547 970.224L-3.39703 938.742L98.6069 997.323L106.976 1002.12L52.2198 1033.6L-2.53671 1065.09L-27.9077 1050.56ZM110.288 1129.84L91.0191 1118.79L15.793 1075.61L-0.138763 1066.49L54.619 1035L69.3765 1026.52L109.532 1003.6L164.08 1034.72L219.801 1066.88L110.288 1129.84ZM111.983 1002.12L122.699 995.975L166.817 970.638L221.575 939.156L331.921 1002.54L293.044 1024.86L222.408 1065.5L111.983 1002.12ZM389.912 1098.77L363.055 1114.18L343.785 1125.25L335.077 1130.25L307.099 1114.18L293.097 1106.14L252.029 1082.56L224.729 1066.88L249.083 1052.9L279.539 1035.39L334.295 1003.91L345.428 1010.29L444.668 1067.34L389.912 1098.77ZM336.797 1002.54L345.507 997.531L391.632 971.054L393.353 970.042L400.603 965.893L446.468 939.571L556.816 1002.92L502.059 1034.41L447.172 1065.84L336.797 1002.54ZM614.779 1099.16L560.023 1130.64L547.82 1123.67L531.34 1114.18L449.648 1067.29L504.405 1035.81L559.163 1004.32L669.509 1067.68L614.779 1099.16ZM672.013 1066.3L570.14 1007.8L561.665 1002.92L616.421 971.443L671.179 939.96L754.617 987.935L781.423 1003.34L726.665 1034.82L672.013 1066.3ZM866.087 1084.46L839.62 1099.55L833.988 1102.79L784.785 1131.03L674.437 1067.65L729.195 1036.17L783.951 1004.69L894.325 1068.07L866.087 1084.46ZM896.88 1066.77L859.724 1045.45L857.639 1044.24L830.937 1028.94L786.611 1003.42L841.368 971.935L857.664 962.573L896.203 940.453L909.917 948.233L998.572 999.191L1006.39 1003.7L988.141 1014.26L951.637 1035.18L910.231 1058.97L896.88 1066.77ZM1090.93 1084.92L1064.62 1099.99L1058.99 1103.23L1041.44 1113.29L1009.78 1131.45L983.213 1116.17L899.409 1068.07L954.167 1036.59L955.027 1036.09L975.625 1024.27L998.701 1011.02L1009 1005.1L1119.37 1068.43L1090.93 1084.92ZM1084.59 1046.02L1082.48 1044.81L1055.8 1029.48L1041.31 1021.16L1011.37 1003.96L1066.13 972.48L1082.4 963.144L1120.93 940.997L1134.68 948.777L1231.49 1004.14L1213.24 1014.67L1176.73 1035.63L1135.36 1059.38L1121.9 1067.16L1084.59 1046.02ZM1289.32 1100.61L1234.58 1132.1L1208.03 1116.61L1124.15 1068.43L1178.91 1036.95L1179.76 1036.43L1200.36 1024.6L1231.66 1006.61L1233.69 1005.47L1344.03 1068.82L1289.32 1100.61ZM1321.3 1053.23L1236.22 1004.38L1290.98 972.894L1345.73 941.412L1447.92 999.735L1456.29 1004.56L1401.53 1036.04L1346.78 1067.52L1321.3 1053.23ZM1440.09 1121.2L1364.95 1078.05L1349.01 1068.9L1403.77 1037.42L1418.52 1028.96L1458.6 1005.93L1513.11 1037.31L1568.93 1069.36L1459.25 1132.33L1440.09 1121.2Z" fill="#151515"/>
</svg>
