<svg xmlns="http://www.w3.org/2000/svg" xmlns:xlink="http://www.w3.org/1999/xlink" width="1080" zoomAndPan="magnify" viewBox="0 0 810 809.999993" height="1080" preserveAspectRatio="xMidYMid meet" version="1.0"><defs><clipPath id="9063123802"><path d="M 163.066406 163.066406 L 646.816406 163.066406 L 646.816406 646.816406 L 163.066406 646.816406 Z M 163.066406 163.066406 " clip-rule="nonzero"/></clipPath></defs><g clip-path="url(#9063123802)"><path fill="#c0c0c0" d="M 405 163.066406 C 271.382812 163.066406 163.066406 271.382812 163.066406 405 C 163.066406 538.613281 271.382812 646.933594 405 646.933594 C 538.613281 646.933594 646.933594 538.613281 646.933594 405 C 646.933594 271.382812 538.613281 163.066406 405 163.066406 Z M 405 628.609375 C 281.503906 628.609375 181.390625 528.492188 181.390625 405 C 181.390625 281.503906 281.503906 181.390625 405 181.390625 C 528.496094 181.390625 628.609375 281.503906 628.609375 405 C 628.609375 528.496094 528.496094 628.609375 405 628.609375 Z M 405 628.609375 " fill-opacity="1" fill-rule="nonzero"/></g><path fill="#c0c0c0" d="M 376.605469 523.589844 C 370.535156 524.171875 365.6875 524.835938 360.820312 525.066406 C 333.21875 526.375 312.78125 515.488281 300.386719 490.113281 C 296.4375 482.03125 291.386719 474.40625 286.125 467.082031 C 282.964844 462.683594 278.535156 459.152344 274.445312 455.488281 L 274.394531 455.445312 C 271.867188 453.21875 272.984375 449.058594 276.304688 448.5 C 280.207031 447.84375 283.839844 448.546875 287.382812 449.449219 C 298.484375 452.277344 305.609375 460.144531 311.285156 469.554688 C 324.125 490.839844 346.230469 499.714844 370.136719 493.375 C 374.195312 492.296875 375.984375 490.550781 376.867188 486.125 C 377.898438 480.960938 379.296875 475.875 380.804688 470.6875 C 381.023438 469.921875 381.167969 469.144531 381.230469 468.351562 C 381.292969 467.558594 381.277344 466.765625 381.179688 465.976562 C 381.082031 465.1875 380.90625 464.417969 380.652344 463.664062 C 380.394531 462.910156 380.070312 462.1875 379.667969 461.5 C 379.265625 460.816406 378.800781 460.175781 378.269531 459.582031 C 377.738281 458.992188 377.152344 458.457031 376.511719 457.984375 C 375.875 457.511719 375.191406 457.105469 374.472656 456.773438 C 373.75 456.4375 373 456.179688 372.226562 455.996094 L 372.09375 455.964844 C 347.289062 450.03125 325.863281 438.980469 312.054688 416.3125 C 304.671875 404.191406 301.019531 390.839844 301.207031 376.929688 C 301.417969 361.148438 302.816406 345.332031 304.628906 329.636719 C 305.90625 318.589844 311.023438 308.800781 318.96875 300.855469 C 321.738281 298.085938 321.972656 295.765625 320.636719 292.179688 C 315.167969 277.496094 316.117188 262.78125 320.972656 248.066406 C 322.34375 243.917969 324.289062 243.324219 328.257812 244.574219 C 340.550781 248.441406 349.71875 256.4375 357.777344 266.015625 L 357.859375 266.113281 C 358.363281 266.71875 358.910156 267.285156 359.496094 267.808594 C 360.085938 268.332031 360.707031 268.808594 361.367188 269.238281 C 362.023438 269.667969 362.710938 270.046875 363.425781 270.375 C 364.140625 270.703125 364.878906 270.976562 365.632812 271.195312 C 366.390625 271.414062 367.15625 271.578125 367.9375 271.679688 C 368.71875 271.785156 369.5 271.828125 370.289062 271.816406 C 371.074219 271.804688 371.855469 271.734375 372.632812 271.605469 C 373.40625 271.476562 374.171875 271.289062 374.917969 271.046875 C 400.421875 262.679688 439.117188 262.570312 463.171875 270.847656 C 463.925781 271.101562 464.691406 271.300781 465.472656 271.441406 C 466.253906 271.578125 467.039062 271.660156 467.832031 271.679688 C 468.625 271.703125 469.417969 271.664062 470.203125 271.566406 C 470.992188 271.46875 471.769531 271.3125 472.53125 271.097656 C 473.296875 270.882812 474.039062 270.613281 474.761719 270.285156 C 475.484375 269.957031 476.179688 269.578125 476.847656 269.148438 C 477.511719 268.714844 478.140625 268.238281 478.734375 267.710938 C 479.328125 267.183594 479.882812 266.617188 480.390625 266.007812 L 480.46875 265.914062 C 488.539062 256.339844 497.75 248.402344 510.03125 244.523438 C 514.152344 243.222656 515.90625 244.210938 517.210938 248.21875 C 522.003906 262.941406 522.820312 277.566406 517.636719 292.402344 C 516.90625 294.492188 516.9375 298.125 518.234375 299.441406 C 529.246094 310.613281 534.070312 324.480469 535.292969 339.503906 C 536.476562 354.019531 537.753906 368.785156 536.40625 383.199219 C 532.902344 420.683594 510.109375 442.519531 475.449219 453.371094 C 472.480469 454.300781 469.46875 455.078125 466.394531 455.804688 C 465.59375 455.996094 464.820312 456.265625 464.078125 456.617188 C 463.335938 456.96875 462.636719 457.390625 461.980469 457.890625 C 461.328125 458.386719 460.734375 458.945312 460.195312 459.570312 C 459.660156 460.191406 459.191406 460.863281 458.796875 461.582031 C 458.402344 462.304688 458.085938 463.058594 457.847656 463.84375 C 457.609375 464.632812 457.457031 465.433594 457.390625 466.253906 C 457.320312 467.074219 457.335938 467.890625 457.441406 468.703125 C 457.542969 469.519531 457.726562 470.316406 458 471.09375 C 462.71875 484.773438 462 499.390625 461.925781 513.914062 C 461.910156 517.253906 461.898438 520.59375 461.890625 523.933594 C 461.886719 525.3125 461.816406 526.691406 461.679688 528.0625 C 461.542969 529.433594 461.335938 530.796875 461.066406 532.148438 C 460.792969 533.5 460.457031 534.835938 460.054688 536.15625 C 459.652344 537.472656 459.183594 538.769531 458.65625 540.042969 C 458.125 541.316406 457.535156 542.5625 456.882812 543.777344 C 456.230469 544.992188 455.519531 546.171875 454.753906 547.316406 C 453.984375 548.464844 453.164062 549.570312 452.285156 550.632812 C 451.410156 551.699219 450.484375 552.71875 449.507812 553.691406 C 448.53125 554.667969 447.507812 555.589844 446.441406 556.464844 C 445.375 557.339844 444.269531 558.160156 443.121094 558.921875 C 441.972656 559.6875 440.792969 560.394531 439.574219 561.046875 C 438.359375 561.695312 437.113281 562.28125 435.839844 562.808594 C 434.5625 563.335938 433.265625 563.800781 431.945312 564.199219 C 430.625 564.597656 429.289062 564.933594 427.9375 565.203125 C 426.585938 565.472656 425.222656 565.671875 423.847656 565.808594 C 422.476562 565.941406 421.101562 566.011719 419.722656 566.011719 L 418.773438 566.011719 C 417.390625 566.011719 416.011719 565.941406 414.636719 565.808594 C 413.265625 565.671875 411.898438 565.46875 410.546875 565.199219 C 409.191406 564.929688 407.851562 564.59375 406.53125 564.195312 C 405.210938 563.792969 403.910156 563.328125 402.632812 562.800781 C 401.359375 562.269531 400.113281 561.679688 398.894531 561.03125 C 397.675781 560.378906 396.492188 559.671875 395.34375 558.902344 C 394.195312 558.136719 393.085938 557.3125 392.019531 556.4375 C 390.953125 555.5625 389.929688 554.636719 388.953125 553.660156 C 387.976562 552.683594 387.050781 551.660156 386.175781 550.59375 C 385.296875 549.523438 384.476562 548.417969 383.710938 547.269531 C 382.941406 546.121094 382.234375 544.9375 381.582031 543.71875 C 380.929688 542.5 380.339844 541.253906 379.8125 539.976562 C 379.285156 538.703125 378.820312 537.402344 378.417969 536.082031 C 378.019531 534.761719 377.683594 533.421875 377.414062 532.066406 C 377.144531 530.710938 376.941406 529.347656 376.804688 527.972656 C 376.671875 526.597656 376.601562 525.222656 376.601562 523.839844 Z M 376.605469 523.589844 " fill-opacity="1" fill-rule="nonzero"/></svg>